<svg width="32" height="32" viewBox="-1 -1 12 13" fill="none" xmlns="http://www.w3.org/2000/svg">
  <path d="M4.61773 6.36656C5.34075 6.36656 5.92687 5.78629 5.92687 5.07049C5.92687 4.35469 5.34075 3.77441 4.61773 3.77441C3.89471 3.77441 3.30859 4.35469 3.30859 5.07049C3.30859 5.78629 3.89471 6.36656 4.61773 6.36656Z" fill="white"/>
  <path d="M6.43896 6.78564C4.89906 7.11385 3.91949 8.61649 4.251 10.141C5.79154 9.81217 6.77112 8.31017 6.43896 6.78564Z" fill="white"/>
  <path d="M5.20703 2.63989C6.25746 3.80211 8.06126 3.90122 9.23519 2.86127C8.18411 1.69841 6.38096 1.5993 5.20703 2.63989Z" fill="white"/>
  <path d="M0 7.27949C1.17393 6.23954 2.97773 6.33865 4.02816 7.50151C2.85358 8.54145 1.05043 8.4417 0 7.27949Z" fill="white"/>
  <path d="M4.9855 0C5.31701 1.52453 4.33678 3.02717 2.79689 3.35473C2.46538 1.8302 3.44496 0.328201 4.9855 0Z" fill="white"/>
  <path d="M0.371952 2.22266C1.86764 2.71303 2.67821 4.31092 2.1829 5.79168C0.68786 5.30131-0.123362 3.70342 0.371952 2.22266Z" fill="white"/>
  <path d="M7.03284 4.36768C8.52853 4.85805 9.3391 6.45593 8.84378 7.9367C7.34874 7.44568 6.53817 5.84844 7.03284 4.36768Z" fill="white"/>
</svg>
