<svg width="189" height="34" viewBox="0 0 189 34" fill="none" xmlns="http://www.w3.org/2000/svg">
<path d="M41.8711 28.8282V5.21717C41.8711 5.12007 41.9509 5.04024 42.048 5.04024H46.0116C46.1 5.04024 46.1756 5.10712 46.1863 5.19559L46.5575 8.08898C46.579 8.2508 46.784 8.30042 46.8768 8.16665C48.4432 5.8925 51.3345 4.31743 54.7133 4.31743C59.8226 4.31743 63.1691 7.75455 63.1691 13.1357V28.8303C63.1691 28.9274 63.0893 29.0073 62.9922 29.0073H58.0102C57.9131 29.0073 57.8333 28.9274 57.8333 28.8303V13.4075C57.8333 10.7407 56.0705 8.97576 53.0843 8.97576C49.6019 8.97576 47.2522 11.3729 47.2069 14.4928V28.8303C47.2069 28.9274 47.1271 29.0073 47.03 29.0073H42.048C41.9509 29.0051 41.8711 28.9253 41.8711 28.8282Z" fill="white"/>
<path d="M66.1337 28.8281V5.21715C66.1337 5.12006 66.2135 5.04022 66.3106 5.04022H71.2926C71.3897 5.04022 71.4695 5.12006 71.4695 5.21715V28.8281C71.4695 28.9252 71.3897 29.0051 71.2926 29.0051H66.3106C66.2135 29.0051 66.1337 28.9252 66.1337 28.8281Z" fill="white"/>
<path d="M74.6175 28.8281V5.21715C74.6175 5.12006 74.6973 5.04022 74.7944 5.04022H78.758C78.8464 5.04022 78.9219 5.10495 78.9327 5.19341L79.47 9.18072C79.4937 9.35118 79.7203 9.39001 79.8001 9.23898C81.3752 6.31107 82.8812 5.08122 86.6506 5.08122H87.3885C87.4813 5.08122 87.5568 5.15673 87.5568 5.24951L89.4167 9.95531C89.4188 9.96178 89.4145 9.96826 89.408 9.96826H87.8675C82.8941 9.96826 79.9554 12.6351 79.9554 17.1575V28.8281C79.9554 28.9252 79.8756 29.0051 79.7785 29.0051H74.7965C74.6973 29.0051 74.6175 28.9252 74.6175 28.8281Z" fill="white"/>
<path d="M99.6827 28.8972L89.8374 5.28404C89.7878 5.16752 89.8741 5.04022 90.0014 5.04022H95.4041C95.4775 5.04022 95.5422 5.08553 95.5681 5.15242L102.367 22.3056C102.425 22.4545 102.636 22.4545 102.695 22.3056L109.45 5.15458C109.476 5.08769 109.543 5.04238 109.614 5.04238H115.017C115.142 5.04238 115.228 5.17183 115.181 5.28619L105.336 28.8972C105.308 28.9641 105.243 29.0051 105.172 29.0051H99.8467C99.7755 29.0051 99.7108 28.9619 99.6827 28.8972Z" fill="white"/>
<path d="M114.268 16.8878C114.268 9.472 118.836 4.31741 125.212 4.31741C128.763 4.31741 131.747 5.8968 133.361 8.36514C133.452 8.50323 133.663 8.4536 133.685 8.28962L134.058 5.19557C134.069 5.10711 134.144 5.04022 134.233 5.04022H138.194C138.291 5.04022 138.371 5.12006 138.371 5.21715V28.8282C138.371 28.9252 138.291 29.0051 138.194 29.0051H133.258C133.161 29.0051 133.081 28.9252 133.081 28.8282V26.3231C133.081 26.1505 132.863 26.0815 132.761 26.2196C131.182 28.3815 128.604 29.6826 125.393 29.6826C118.925 29.6826 114.268 24.4374 114.268 16.8878ZM133.079 16.8425C133.079 12.0935 130.366 8.79451 126.476 8.79451C122.498 8.79451 119.738 12.141 119.738 16.9331C119.738 21.7705 122.45 25.1623 126.386 25.1623C130.319 25.1623 133.079 21.7252 133.079 16.8425Z" fill="white"/>
<path d="M141.058 28.8282V5.21715C141.058 5.12006 141.137 5.04022 141.234 5.04022H145.198C145.286 5.04022 145.362 5.10711 145.373 5.19557L145.744 8.08896C145.765 8.25078 145.97 8.30041 146.063 8.16663C147.63 5.89249 150.521 4.31741 153.9 4.31741C159.009 4.31741 162.356 7.75453 162.356 13.1357V28.8303C162.356 28.9274 162.276 29.0072 162.179 29.0072H157.197C157.1 29.0072 157.02 28.9274 157.02 28.8303V13.4075C157.02 10.7407 155.257 8.97575 152.271 8.97575C148.788 8.97575 146.439 11.3729 146.393 14.4928V28.8303C146.393 28.9274 146.314 29.0072 146.216 29.0072H141.234C141.137 29.0051 141.058 28.9252 141.058 28.8282Z" fill="white"/>
<path d="M164.256 16.8878C164.256 9.472 168.824 4.31741 175.2 4.31741C178.751 4.31741 181.735 5.8968 183.349 8.36514C183.44 8.50323 183.651 8.4536 183.673 8.28962L184.046 5.19557C184.057 5.10711 184.133 5.04022 184.221 5.04022H188.182C188.28 5.04022 188.359 5.12006 188.359 5.21715V28.8282C188.359 28.9252 188.28 29.0051 188.182 29.0051H183.246C183.149 29.0051 183.069 28.9252 183.069 28.8282V26.3231C183.069 26.1505 182.851 26.0815 182.75 26.2196C181.17 28.3815 178.592 29.6826 175.381 29.6826C168.915 29.6826 164.256 24.4374 164.256 16.8878ZM183.067 16.8425C183.067 12.0935 180.355 8.79451 176.464 8.79451C172.486 8.79451 169.726 12.141 169.726 16.9331C169.726 21.7705 172.438 25.1623 176.374 25.1623C180.309 25.1623 183.067 21.7252 183.067 16.8425Z" fill="white"/>
<path d="M15.3278 21.3455C17.7278 21.3455 19.6733 19.3999 19.6733 17C19.6733 14.6001 17.7278 12.6545 15.3278 12.6545C12.9279 12.6545 10.9824 14.6001 10.9824 17C10.9824 19.3999 12.9279 21.3455 15.3278 21.3455Z" fill="white"/>
<path d="M21.3714 22.7501C16.2599 23.8505 13.0084 28.8886 14.1088 34C19.2224 32.8975 22.4739 27.8615 21.3714 22.7501Z" fill="white"/>
<path d="M17.2848 8.85062C20.7715 12.7473 26.759 13.0796 30.6557 9.59285C27.1668 5.694 21.1815 5.36172 17.2848 8.85062Z" fill="white"/>
<path d="M0 24.4072C3.89669 20.9204 9.88412 21.2527 13.3709 25.1515C9.47201 28.6383 3.48674 28.3038 0 24.4072Z" fill="white"/>
<path d="M16.5469 0C17.6473 5.11144 14.3936 10.1495 9.28213 11.2478C8.18174 6.13632 11.4333 1.10039 16.5469 0Z" fill="white"/>
<path d="M1.23416 7.45248C6.19888 9.0966 8.88945 14.454 7.24533 19.4187C2.28277 17.7746 -0.409956 12.4172 1.23416 7.45248Z" fill="white"/>
<path d="M23.3456 14.6439C28.3103 16.288 31.0009 21.6454 29.3568 26.6101C24.3942 24.9638 21.7036 19.6086 23.3456 14.6439Z" fill="white"/>
</svg>
